<?xml version="1.0" standalone="no"?>
<!DOCTYPE svg PUBLIC "-//W3C//DTD SVG 1.1//EN" "http://www.w3.org/Graphics/SVG/1.1/DTD/svg11.dtd" >
<svg>
<font id="Typeface" horiz-adv-x="27" >
<font-face units-per-em="100" ascent="80" descent="-20" />
<glyph unicode=" " horiz-adv-x="27" d="" />
<glyph unicode="!" horiz-adv-x="74" d="M47.992 56.203 L61.39 88 L64.632 88 L51.234 56.203 L47.992 56.203 zM30 20.203 L43.398 52 L46.64 52 L33.242 20.203 L30 20.203 zM23.24219 0 C22.78646 0 22.36328 0.08464 21.97266 0.25391 C21.58203 0.42318 21.24023 0.6543 20.94727 0.94727 C20.6543 1.24023 20.42318 1.58203 20.25391 1.97266 C20.08464 2.36328 20 2.77995 20 3.22266 C20 3.67839 20.08464 4.10482 20.25391 4.50195 C20.42318 4.89909 20.6543 5.2474 20.94727 5.54688 C21.24023 5.84635 21.58203 6.08073 21.97266 6.25 C22.36328 6.41927 22.78646 6.50391 23.24219 6.50391 C23.6849 6.50391 24.10482 6.41927 24.50195 6.25 C24.89909 6.08073 25.24414 5.84635 25.53711 5.54688 C25.83008 5.2474 26.0612 4.89909 26.23047 4.50195 C26.39974 4.10482 26.48437 3.67839 26.48438 3.22266 C26.48437 2.77995 26.39974 2.36328 26.23047 1.97266 C26.0612 1.58203 25.83008 1.24023 25.53711 0.94727 C25.24414 0.6543 24.89909 0.42318 24.50195 0.25391 C24.10482 0.08464 23.6849 0 23.24219 0 z" />
<glyph unicode="," horiz-adv-x="74" d="M33.33913 -3.16 L32.79213 6 L37.26513 6 L36.69813 -3.16 L33.33913 -3.16 z" />
<glyph unicode="-" horiz-adv-x="74" d="M26.008 29.187 L26.008 32 L48 32 L48 29.187 L26.008 29.187 z" />
<glyph unicode="." horiz-adv-x="74" d="M35.24219 0 C34.78646 0 34.36328 0.08464 33.97266 0.25391 C33.58203 0.42318 33.24023 0.6543 32.94727 0.94727 C32.6543 1.24023 32.42318 1.58203 32.25391 1.97266 C32.08464 2.36328 32 2.77995 32 3.22266 C32 3.67839 32.08464 4.10482 32.25391 4.50195 C32.42318 4.89909 32.6543 5.2474 32.94727 5.54688 C33.24023 5.84635 33.58203 6.08073 33.97266 6.25 C34.36328 6.41927 34.78646 6.50391 35.24219 6.50391 C35.6849 6.50391 36.10482 6.41927 36.50195 6.25 C36.89909 6.08073 37.24414 5.84635 37.53711 5.54688 C37.83008 5.2474 38.0612 4.89909 38.23047 4.50195 C38.39974 4.10482 38.48437 3.67839 38.48438 3.22266 C38.48437 2.77995 38.39974 2.36328 38.23047 1.97266 C38.0612 1.58203 37.83008 1.24023 37.53711 0.94727 C37.24414 0.6543 36.89909 0.42318 36.50195 0.25391 C36.10482 0.08464 35.6849 0 35.24219 0 z" />
<glyph unicode="/" horiz-adv-x="74" d="M37.359 40 L50.758 71.797 L54 71.797 L40.602 40 L37.359 40 zM19.367 4 L32.766 35.797 L36.008 35.797 L22.609 4 L19.367 4 z" />
<glyph unicode="0" horiz-adv-x="74" d="M16.25 72 L16.25 74.813 L38.242 74.813 L38.242 72 L16.25 72 zM34.242 72 L34.242 74.813 L56.234 74.813 L56.234 72 L34.242 72 zM0.504 39.809 L13.902 71.606 L17.145 71.606 L3.746 39.809 L0.504 39.809 zM68.758 39.809 L55.359 71.606 L58.602 71.606 L72 39.809 L68.758 39.809 zM14.781 3.809 L1.383 35.606 L4.625 35.606 L18.024 3.809 L14.781 3.809 zM16.25 0 L16.25 2.813 L38.242 2.813 L38.242 0 L16.25 0 zM34.242 0 L34.242 2.813 L56.234 2.813 L56.234 0 L34.242 0 zM54.481 3.809 L67.879 35.606 L71.121 35.606 L57.723 3.809 L54.481 3.809 z" />
<glyph unicode="1" horiz-adv-x="74" d="M17.656 39.809 L31.054 71.605 L34.297 71.605 L20.898 39.809 L17.656 39.809 zM42.797 36 L42.797 76 L46 76 L46 36 L42.797 36 zM42.797 0 L42.797 40 L46 40 L46 0 L42.797 0 z" />
<glyph unicode="2" horiz-adv-x="74" d="M10.023 72 L10.023 74.813 L32.015 74.813 L32.015 72 L10.023 72 zM28.015 72 L28.015 74.813 L50.007 74.813 L50.007 72 L28.015 72 zM28.015 36 L28.015 38.813 L50.007 38.813 L50.007 36 L28.015 36 zM53.05816 35.80519 C52.4006 36.47576 51.74305 37.14633 51.0855 37.81691 C53.62456 40.32993 55.51909 42.95363 56.76909 45.688 C58.01909 48.42237 58.64409 51.28696 58.64409 54.28175 C58.64409 60.47967 56.12456 66.05258 51.0855 71.0005 C51.76909 71.69711 52.45269 72.39373 53.13628 73.09034 C59.13889 67.53045 62.14019 61.34555 62.14019 54.53566 C62.14019 53.12941 61.99696 51.67107 61.7105 50.16066 C61.42404 48.65024 60.93576 47.10402 60.24566 45.52198 C59.55555 43.93995 58.62782 42.33514 57.46245 40.70753 C56.29709 39.07993 54.82899 37.44581 53.05816 35.80519 zM12.269 3.809 L25.668 35.606 L28.91 35.606 L15.511 3.809 L12.269 3.809 zM28.015 0 L28.015 2.813 L50.007 2.813 L50.007 0 L28.015 0 zM46.007 0 L46.007 2.813 L68 2.813 L68 0 L46.007 0 z" />
<glyph unicode="3" horiz-adv-x="74" d="M14 72.19481 L14 75.00781 L35.992 75.00781 L35.992 72.19481 L14 72.19481 zM31.992 72.19481 L31.992 75.00781 L53.984 75.00781 L53.984 72.19481 L31.992 72.19481 zM31.992 36.19481 L31.992 39.00781 L53.984 39.00781 L53.984 36.19481 L31.992 36.19481 zM57.03516 36 C56.3776 36.67057 55.72005 37.34115 55.0625 38.01172 C57.60156 40.52474 59.49609 43.14844 60.74609 45.88281 C61.99609 48.61719 62.62109 51.48177 62.62109 54.47656 C62.62109 60.67448 60.10156 66.2474 55.0625 71.19531 C55.74609 71.89193 56.42969 72.58854 57.11328 73.28516 C63.11589 67.72526 66.11719 61.54036 66.11719 54.73047 C66.11719 53.32422 65.97396 51.86589 65.6875 50.35547 C65.40104 48.84505 64.91276 47.29883 64.22266 45.7168 C63.53255 44.13477 62.60482 42.52995 61.43945 40.90234 C60.27409 39.27474 58.80599 37.64063 57.03516 36 zM14 0.19481 L14 3.00781 L35.992 3.00781 L35.992 0.19481 L14 0.19481 zM31.992 0.19481 L31.992 3.00781 L53.984 3.00781 L53.984 0.19481 L31.992 0.19481 zM57.03516 0 C56.3776 0.67057 55.72005 1.34115 55.0625 2.01172 C57.60156 4.52474 59.49609 7.14844 60.74609 9.88281 C61.99609 12.61719 62.62109 15.48177 62.62109 18.47656 C62.62109 24.67448 60.10156 30.2474 55.0625 35.19531 C55.74609 35.89193 56.42969 36.58854 57.11328 37.28516 C63.11589 31.72526 66.11719 25.54036 66.11719 18.73047 C66.11719 17.32422 65.97396 15.86589 65.6875 14.35547 C65.40104 12.84505 64.91276 11.29883 64.22266 9.7168 C63.53255 8.13477 62.60482 6.52995 61.43945 4.90234 C60.27409 3.27474 58.80599 1.64063 57.03516 0 z" />
<glyph unicode="4" horiz-adv-x="74" d="M6.82 36 L6.82 76 L10.023 76 L10.023 36 L6.82 36 zM15.418 36 L15.418 38.812 L37.41 38.812 L37.41 36 L15.418 36 zM33.41 36 L33.41 38.812 L55.402 38.812 L55.402 36 L33.41 36 zM60.797 36 L60.797 76 L64 76 L64 36 L60.797 36 zM60.797 0 L60.797 40 L64 40 L64 0 L60.797 0 z" />
<glyph unicode="5" horiz-adv-x="74" d="M22.598 72 L22.598 74.812 L44.59 74.812 L44.59 72 L22.598 72 zM40.59 72 L40.59 74.812 L62.582 74.812 L62.582 72 L40.59 72 zM14 36 L14 76 L17.203 76 L17.203 36 L14 36 zM22.598 36 L22.598 38.812 L44.59 38.812 L44.59 36 L22.598 36 zM22.598 0 L22.598 2.812 L44.59 2.812 L44.59 0 L22.598 0 zM47.64063 -0.19531 C46.98307 0.47526 46.32552 1.14583 45.66797 1.81641 C48.20703 4.32943 50.10156 6.95313 51.35156 9.6875 C52.60156 12.42187 53.22656 15.28646 53.22656 18.28125 C53.22656 24.47917 50.70703 30.05208 45.66797 35 C46.35156 35.69661 47.03516 36.39323 47.71875 37.08984 C53.72135 31.52995 56.72266 25.34505 56.72266 18.53516 C56.72266 17.12891 56.57943 15.67057 56.29297 14.16016 C56.00651 12.64974 55.51823 11.10352 54.82813 9.52148 C54.13802 7.93945 53.21029 6.33464 52.04492 4.70703 C50.87956 3.07943 49.41146 1.44531 47.64063 -0.19531 z" />
<glyph unicode="6" horiz-adv-x="74" d="M17.746 72.19481 L17.746 75.00781 L39.738 75.00781 L39.738 72.19481 L17.746 72.19481 zM35.738 72.19481 L35.738 75.00781 L57.73 75.00781 L57.73 72.19481 L35.738 72.19481 zM2 40.00381 L15.398 71.80081 L18.641 71.80081 L5.242 40.00381 L2 40.00381 zM17.746 36.19481 L17.746 39.00781 L39.738 39.00781 L39.738 36.19481 L17.746 36.19481 zM35.738 36.19481 L35.738 39.00781 L57.73 39.00781 L57.73 36.19481 L35.738 36.19481 zM16.277 4.00381 L2.879 35.80081 L6.121 35.80081 L19.52 4.00381 L16.277 4.00381 zM17.746 0.19481 L17.746 3.00781 L39.738 3.00781 L39.738 0.19481 L17.746 0.19481 zM35.738 0.19481 L35.738 3.00781 L57.73 3.00781 L57.73 0.19481 L35.738 0.19481 zM60.78125 0 C60.1237 0.67057 59.46615 1.34115 58.80859 2.01172 C61.34766 4.52474 63.24219 7.14844 64.49219 9.88281 C65.74219 12.61719 66.36719 15.48177 66.36719 18.47656 C66.36719 24.67448 63.84766 30.2474 58.80859 35.19531 C59.49219 35.89193 60.17578 36.58854 60.85938 37.28516 C66.86198 31.72526 69.86328 25.54036 69.86328 18.73047 C69.86328 17.32422 69.72005 15.86589 69.43359 14.35547 C69.14714 12.84505 68.65885 11.29883 67.96875 9.7168 C67.27865 8.13477 66.35091 6.52995 65.18555 4.90234 C64.02018 3.27474 62.55208 1.64063 60.78125 0 z" />
<glyph unicode="7" horiz-adv-x="74" d="M12 72.191 L12 75.004 L33.992 75.004 L33.992 72.191 L12 72.191 zM29.992 72.191 L29.992 75.004 L51.984 75.004 L51.984 72.191 L29.992 72.191 zM47.984 72.191 L47.984 75.004 L69.977 75.004 L69.977 72.191 L47.984 72.191 zM50.23 40 L63.629 71.797 L66.871 71.797 L53.473 40 L50.23 40 zM32.238 4 L45.637 35.797 L48.879 35.797 L35.48 4 L32.238 4 z" />
<glyph unicode="8" horiz-adv-x="74" d="M17.883 72.19481 L17.883 75.00781 L39.875 75.00781 L39.875 72.19481 L17.883 72.19481 zM35.875 72.19481 L35.875 75.00781 L57.867 75.00781 L57.867 72.19481 L35.875 72.19481 zM14.75391 36 C8.7513 41.5599 5.75 47.70573 5.75 54.4375 C5.75 56.01302 5.90951 57.58529 6.22852 59.1543 C6.54753 60.72331 7.06185 62.29557 7.77148 63.87109 C8.48112 65.44661 9.41862 67.02214 10.58398 68.59766 C11.74935 70.17318 13.16536 71.73568 14.83203 73.28516 C15.48958 72.61458 16.14714 71.94401 16.80469 71.27344 C11.7526 66.28646 9.22656 60.75911 9.22656 54.69141 C9.22656 51.67057 9.86458 48.76693 11.14062 45.98047 C12.41667 43.19401 14.30469 40.5638 16.80469 38.08984 C16.12109 37.39323 15.4375 36.69661 14.75391 36 zM17.883 36.19481 L17.883 39.00781 L39.875 39.00781 L39.875 36.19481 L17.883 36.19481 zM35.875 36.19481 L35.875 39.00781 L57.867 39.00781 L57.867 36.19481 L35.875 36.19481 zM60.91797 36 C60.26042 36.67057 59.60286 37.34115 58.94531 38.01172 C61.48438 40.52474 63.37891 43.14844 64.62891 45.88281 C65.87891 48.61719 66.50391 51.48177 66.50391 54.47656 C66.50391 60.67448 63.98438 66.2474 58.94531 71.19531 C59.62891 71.89193 60.3125 72.58854 60.99609 73.28516 C66.9987 67.72526 70 61.54036 70 54.73047 C70 53.32422 69.85677 51.86589 69.57031 50.35547 C69.28385 48.84505 68.79557 47.29883 68.10547 45.7168 C67.41536 44.13477 66.48763 42.52995 65.32227 40.90234 C64.1569 39.27474 62.6888 37.64063 60.91797 36 zM14.75391 0 C8.7513 5.5599 5.75 11.70573 5.75 18.4375 C5.75 20.01302 5.90951 21.58529 6.22852 23.1543 C6.54753 24.72331 7.06185 26.29557 7.77148 27.87109 C8.48112 29.44661 9.41862 31.02214 10.58398 32.59766 C11.74935 34.17318 13.16536 35.73568 14.83203 37.28516 C15.48958 36.61458 16.14714 35.94401 16.80469 35.27344 C11.7526 30.28646 9.22656 24.75911 9.22656 18.69141 C9.22656 15.67057 9.86458 12.76693 11.14062 9.98047 C12.41667 7.19401 14.30469 4.5638 16.80469 2.08984 C16.12109 1.39323 15.4375 0.69661 14.75391 0 zM17.883 0.19481 L17.883 3.00781 L39.875 3.00781 L39.875 0.19481 L17.883 0.19481 zM35.875 0.19481 L35.875 3.00781 L57.867 3.00781 L57.867 0.19481 L35.875 0.19481 zM60.91797 0 C60.26042 0.67057 59.60286 1.34115 58.94531 2.01172 C61.48438 4.52474 63.37891 7.14844 64.62891 9.88281 C65.87891 12.61719 66.50391 15.48177 66.50391 18.47656 C66.50391 24.67448 63.98437 30.2474 58.94531 35.19531 C59.62891 35.89193 60.3125 36.58854 60.99609 37.28516 C66.9987 31.72526 70 25.54036 70 18.73047 C70 17.32422 69.85677 15.86589 69.57031 14.35547 C69.28385 12.84505 68.79557 11.29883 68.10547 9.7168 C67.41536 8.13477 66.48763 6.52995 65.32227 4.90234 C64.1569 3.27474 62.6888 1.64063 60.91797 0 z" />
<glyph unicode="9" horiz-adv-x="74" d="M16.04499 72 L16.04499 74.813 L38.03699 74.813 L38.03699 72 L16.04499 72 zM34.03699 72 L34.03699 74.813 L56.02899 74.813 L56.02899 72 L34.03699 72 zM12.91589 35.80519 C6.91329 41.36508 3.91199 47.51092 3.91199 54.24269 C3.91199 55.81821 4.07149 57.39047 4.3905 58.95948 C4.70951 60.52849 5.22383 62.10076 5.93347 63.67628 C6.6431 65.2518 7.5806 66.82732 8.74597 68.40284 C9.91133 69.97836 11.32735 71.54086 12.99402 73.09034 C13.65157 72.41977 14.30912 71.7492 14.96667 71.07863 C9.91459 66.09165 7.38855 60.5643 7.38855 54.49659 C7.38855 51.47576 8.02657 48.57211 9.30261 45.78566 C10.57865 42.9992 12.46667 40.36899 14.96667 37.89503 C14.28308 37.19842 13.59949 36.5018 12.91589 35.80519 zM16.04499 36 L16.04499 38.813 L38.03699 38.813 L38.03699 36 L16.04499 36 zM34.03699 36 L34.03699 38.813 L56.02899 38.813 L56.02899 36 L34.03699 36 zM68.55299 39.809 L55.15399 71.606 L58.39599 71.606 L71.79499 39.809 L68.55299 39.809 zM16.04499 0 L16.04499 2.813 L38.03699 2.813 L38.03699 0 L16.04499 0 zM34.03699 0 L34.03699 2.813 L56.02899 2.813 L56.02899 0 L34.03699 0 zM54.27499 3.809 L67.67399 35.606 L70.91599 35.606 L57.51699 3.809 L54.27499 3.809 z" />
<glyph unicode=":" horiz-adv-x="74" d="M35.24219 23.49609 C34.78646 23.49609 34.36328 23.58073 33.97266 23.75 C33.58203 23.91927 33.24023 24.15039 32.94727 24.44336 C32.6543 24.73633 32.42318 25.07812 32.25391 25.46875 C32.08464 25.85938 32 26.27604 32 26.71875 C32 27.17448 32.08464 27.60091 32.25391 27.99805 C32.42318 28.39518 32.6543 28.74349 32.94727 29.04297 C33.24023 29.34245 33.58203 29.57682 33.97266 29.74609 C34.36328 29.91536 34.78646 30 35.24219 30 C35.6849 30 36.10482 29.91536 36.50195 29.74609 C36.89909 29.57682 37.24414 29.34245 37.53711 29.04297 C37.83008 28.74349 38.0612 28.39518 38.23047 27.99805 C38.39974 27.60091 38.48437 27.17448 38.48438 26.71875 C38.48437 26.27604 38.39974 25.85937 38.23047 25.46875 C38.0612 25.07812 37.83008 24.73633 37.53711 24.44336 C37.24414 24.15039 36.89909 23.91927 36.50195 23.75 C36.10482 23.58073 35.6849 23.49609 35.24219 23.49609 zM35.24219 -0 C34.78646 0 34.36329 0.08464 33.97266 0.25391 C33.58204 0.42318 33.24024 0.6543 32.94727 0.94727 C32.6543 1.24024 32.42318 1.58203 32.25391 1.97266 C32.08464 2.36329 32 2.77995 32 3.22266 C32 3.67839 32.08464 4.10482 32.25391 4.50196 C32.42318 4.89909 32.6543 5.2474 32.94727 5.54688 C33.24024 5.84636 33.58204 6.08073 33.97266 6.25 C34.36329 6.41927 34.78646 6.50391 35.24219 6.50391 C35.6849 6.50391 36.10482 6.41927 36.50196 6.25 C36.89909 6.08073 37.24415 5.84636 37.53711 5.54688 C37.83008 5.2474 38.0612 4.89909 38.23047 4.50196 C38.39974 4.10482 38.48438 3.67839 38.48438 3.22266 C38.48438 2.77995 38.39974 2.36328 38.23047 1.97266 C38.0612 1.58203 37.83008 1.24024 37.53711 0.94727 C37.24415 0.6543 36.89909 0.42318 36.50196 0.25391 C36.10482 0.08464 35.6849 0 35.24219 0 z" />
<glyph unicode=";" horiz-adv-x="74" d="M35.24219 23.49609 C34.78646 23.49609 34.36328 23.58073 33.97266 23.75 C33.58203 23.91927 33.24023 24.15039 32.94727 24.44336 C32.6543 24.73633 32.42318 25.07812 32.25391 25.46875 C32.08464 25.85938 32 26.27604 32 26.71875 C32 27.17448 32.08464 27.60091 32.25391 27.99805 C32.42318 28.39518 32.6543 28.74349 32.94727 29.04297 C33.24023 29.34245 33.58203 29.57682 33.97266 29.74609 C34.36328 29.91536 34.78646 30 35.24219 30 C35.6849 30 36.10482 29.91536 36.50195 29.74609 C36.89909 29.57682 37.24414 29.34245 37.53711 29.04297 C37.83008 28.74349 38.0612 28.39518 38.23047 27.99805 C38.39974 27.60091 38.48437 27.17448 38.48438 26.71875 C38.48437 26.27604 38.39974 25.85937 38.23047 25.46875 C38.0612 25.07812 37.83008 24.73633 37.53711 24.44336 C37.24414 24.15039 36.89909 23.91927 36.50195 23.75 C36.10482 23.58073 35.6849 23.49609 35.24219 23.49609 zM33.28187 -3.16 L32.73487 6 L37.20787 6 L36.64087 -3.16 L33.28187 -3.16 z" />
<glyph unicode="A" horiz-adv-x="74" d="M21.73828 40 L18.4961 40 L31.89453 71.79687 L35.13672 71.79687 C30.67058 61.19792 26.20443 50.59896 21.73828 40 zM54.00781 40 L50.76563 40 L37.36719 71.79687 L40.60938 71.79687 C45.07552 61.19792 49.54167 50.59896 54.00781 40 zM3.7461 4 L0.50391 4 L13.90235 35.79687 L17.14453 35.79687 C12.67839 25.19792 8.21224 14.59896 3.7461 4 zM31.44531 14.91797 C30.72917 14.91797 30.08464 15.03841 29.51172 15.2793 C28.9388 15.52018 28.40821 15.82292 27.91992 16.1875 C27.43164 16.55208 26.98242 16.94922 26.57227 17.3789 C26.16211 17.80859 25.75847 18.20573 25.36133 18.57031 C24.9642 18.93489 24.57031 19.23763 24.17969 19.47851 C23.78906 19.7194 23.3724 19.83984 22.92969 19.83984 C22.16146 19.83984 21.5918 19.53385 21.22071 18.92187 C20.84961 18.30989 20.66406 17.34635 20.66406 16.03125 C19.6224 16.03125 18.58073 16.03125 17.53906 16.03125 C17.51302 17.02083 17.61393 17.93555 17.8418 18.77539 C18.06966 19.61523 18.41472 20.3444 18.87696 20.96289 C19.3392 21.58138 19.91862 22.06315 20.61524 22.4082 C21.31185 22.75325 22.1224 22.92578 23.04688 22.92578 C23.76302 22.92578 24.40755 22.80534 24.98047 22.56445 C25.55339 22.32357 26.08399 22.02083 26.57227 21.65625 C27.06055 21.29167 27.50977 20.89453 27.91992 20.46484 C28.33008 20.03515 28.73373 19.63802 29.13086 19.27344 C29.528 18.90885 29.92188 18.60612 30.3125 18.36523 C30.70313 18.12435 31.11979 18.0039 31.5625 18.0039 C32.38281 18.0039 32.96875 18.30338 33.32031 18.90234 C33.67188 19.5013 33.84766 20.46484 33.84766 21.79297 C34.88933 21.79297 35.93099 21.79297 36.97266 21.79297 C36.98568 20.80338 36.88151 19.88867 36.66016 19.04883 C36.4388 18.20898 36.09375 17.48307 35.625 16.87109 C35.15625 16.25911 34.57357 15.7806 33.87696 15.43555 C33.18034 15.09049 32.36979 14.91797 31.44531 14.91797 zM49.4375 14.91797 C48.72136 14.91797 48.07683 15.03841 47.50391 15.2793 C46.93099 15.52018 46.40039 15.82292 45.91211 16.1875 C45.42383 16.55208 44.97461 16.94922 44.56446 17.3789 C44.1543 17.80859 43.75065 18.20573 43.35352 18.57031 C42.95638 18.93489 42.5625 19.23763 42.17188 19.47851 C41.78125 19.7194 41.36459 19.83984 40.92188 19.83984 C40.15365 19.83984 39.58399 19.53385 39.21289 18.92187 C38.8418 18.30989 38.65625 17.34635 38.65625 16.03125 C37.61459 16.03125 36.57292 16.03125 35.53125 16.03125 C35.50521 17.02083 35.60612 17.93555 35.83399 18.77539 C36.06185 19.61523 36.4069 20.3444 36.86914 20.96289 C37.33138 21.58138 37.91081 22.06315 38.60742 22.4082 C39.30404 22.75325 40.11459 22.92578 41.03906 22.92578 C41.75521 22.92578 42.39974 22.80534 42.97266 22.56445 C43.54558 22.32357 44.07617 22.02083 44.56446 21.65625 C45.05274 21.29167 45.50196 20.89453 45.91211 20.46484 C46.32227 20.03515 46.72591 19.63802 47.12305 19.27344 C47.52018 18.90885 47.91406 18.60612 48.30469 18.36523 C48.69531 18.12435 49.11198 18.0039 49.55469 18.0039 C50.375 18.0039 50.96094 18.30338 51.3125 18.90234 C51.66406 19.5013 51.83985 20.46484 51.83985 21.79297 C52.88151 21.79297 53.92318 21.79297 54.96485 21.79297 C54.97787 20.80338 54.8737 19.88867 54.65235 19.04883 C54.43099 18.20898 54.08594 17.48307 53.61719 16.87109 C53.14844 16.25911 52.56576 15.7806 51.86914 15.43555 C51.17253 15.09049 50.36198 14.91797 49.4375 14.91797 zM72 4 L68.75781 4 L55.35938 35.79687 L58.60156 35.79687 C63.06771 25.19792 67.53386 14.59896 72 4 z" />
<glyph unicode="B" horiz-adv-x="74" d="M36.58984 72 L14.59766 72 L14.59766 74.8125 L36.58984 74.8125 C36.58984 73.875 36.58984 72.9375 36.58984 72 zM54.58203 72 L32.58984 72 L32.58984 74.8125 L54.58203 74.8125 C54.58203 73.875 54.58203 72.9375 54.58203 72 zM9.20312 36 L6 36 L6 76 L9.20312 76 C9.20312 62.66667 9.20312 49.33333 9.20312 36 zM36.58984 36 L14.59766 36 L14.59766 38.8125 L36.58984 38.8125 C36.58984 37.875 36.58984 36.9375 36.58984 36 zM54.58203 36 L32.58984 36 L32.58984 38.8125 L54.58203 38.8125 C54.58203 37.875 54.58203 36.9375 54.58203 36 zM57.63281 35.80469 C56.97526 36.47526 56.31771 37.14583 55.66016 37.81641 C58.19922 40.32943 60.09375 42.95313 61.34375 45.6875 C62.59375 48.42187 63.21875 51.28646 63.21875 54.28125 C63.21875 60.47917 60.69922 66.05208 55.66016 71 C56.34375 71.69661 57.02734 72.39323 57.71094 73.08984 C63.71354 67.52995 66.71484 61.34505 66.71484 54.53516 C66.71484 53.12891 66.57161 51.67057 66.28516 50.16016 C65.9987 48.64974 65.51042 47.10352 64.82031 45.52148 C64.13021 43.93945 63.20247 42.33464 62.03711 40.70703 C60.87174 39.07943 59.40365 37.44531 57.63281 35.80469 zM9.20312 0 L6 0 L6 40 L9.20312 40 C9.20312 26.66667 9.20312 13.33333 9.20312 0 zM36.58984 0 L14.59766 0 L14.59766 2.8125 L36.58984 2.8125 C36.58984 1.875 36.58984 0.9375 36.58984 0 zM54.58203 0 L32.58984 0 L32.58984 2.8125 L54.58203 2.8125 C54.58203 1.875 54.58203 0.9375 54.58203 0 zM57.63281 -0.19531 C56.97526 0.47526 56.31771 1.14583 55.66016 1.81641 C58.19922 4.32943 60.09375 6.95313 61.34375 9.6875 C62.59375 12.42187 63.21875 15.28646 63.21875 18.28125 C63.21875 24.47917 60.69922 30.05208 55.66016 35 C56.34375 35.69661 57.02734 36.39323 57.71094 37.08984 C63.71354 31.52995 66.71484 25.34505 66.71484 18.53516 C66.71484 17.12891 66.57161 15.67057 66.28516 14.16016 C65.9987 12.64974 65.51042 11.10352 64.82031 9.52148 C64.13021 7.93945 63.20247 6.33464 62.03711 4.70703 C60.87174 3.07943 59.40365 1.44531 57.63281 -0.19531 z" />
<glyph unicode="C" horiz-adv-x="74" d="M39.35038 71.94705 L17.35819 71.94705 L17.35819 74.75955 L39.35038 74.75955 C39.35038 73.82205 39.35038 72.88455 39.35038 71.94705 zM57.34257 71.94705 L35.35038 71.94705 L35.35038 74.75955 L57.34257 74.75955 C57.34257 73.82205 57.34257 72.88455 57.34257 71.94705 zM4.85429 39.75565 L1.6121 39.75565 L15.01054 71.55252 L18.25273 71.55252 C13.78658 60.95356 9.32043 50.3546 4.85429 39.75565 zM66.38944 66.82596 L62.99101 66.82596 L56.74101 71.55252 L61.66288 71.55252 C63.2384 69.977 64.81392 68.40148 66.38944 66.82596 zM19.13163 3.75565 L15.88944 3.75565 L2.49101 35.55252 L5.73319 35.55252 C10.19934 24.95356 14.66549 14.3546 19.13163 3.75565 zM39.35038 -0.05295 L17.35819 -0.05295 L17.35819 2.75955 L39.35038 2.75955 C39.35038 1.82205 39.35038 0.88455 39.35038 -0.05295 zM57.34257 -0.05295 L35.35038 -0.05295 L35.35038 2.75955 L57.34257 2.75955 C57.34257 1.82205 57.34257 0.88455 57.34257 -0.05295 zM57.99101 1.27518 C57.99101 2.1671 57.99101 3.05903 57.99101 3.95096 C58.65507 3.92492 59.2996 3.98351 59.9246 4.12674 C60.5496 4.26997 61.09973 4.48156 61.57499 4.76151 C62.05025 5.04145 62.43111 5.38976 62.71757 5.80643 C63.00403 6.22309 63.14726 6.69835 63.14726 7.23221 C63.14726 7.77908 63.05286 8.22179 62.86405 8.56033 C62.67525 8.89887 62.46366 9.21137 62.22929 9.49783 C61.99491 9.78429 61.78332 10.09028 61.59452 10.4158 C61.40572 10.74132 61.31132 11.17752 61.31132 11.7244 C61.31132 11.99783 61.3634 12.28429 61.46757 12.58377 C61.57174 12.88325 61.73124 13.15669 61.94608 13.40408 C62.16093 13.65148 62.43437 13.8533 62.7664 14.00955 C63.09843 14.1658 63.49231 14.24393 63.94804 14.24393 C64.40377 14.24393 64.84322 14.14953 65.2664 13.96072 C65.68957 13.77192 66.06067 13.48221 66.37968 13.09158 C66.69869 12.70096 66.95259 12.21268 67.1414 11.62674 C67.3302 11.0408 67.4246 10.3507 67.4246 9.55643 C67.4246 8.4757 67.22603 7.43729 66.8289 6.44119 C66.43176 5.4451 65.83931 4.56294 65.05155 3.79471 C64.26379 3.02648 63.28072 2.4145 62.10233 1.95877 C60.92395 1.50304 59.55351 1.27518 57.99101 1.27518 z" />
<glyph unicode="D" horiz-adv-x="74" d="M36.58985 72 L14.59766 72 L14.59766 74.8125 L36.58985 74.8125 C36.58985 73.875 36.58985 72.9375 36.58985 72 zM54.58204 72 L32.58985 72 L32.58985 74.8125 L54.58204 74.8125 C54.58204 73.875 54.58204 72.9375 54.58204 72 zM9.20313 36 L6 36 L6 76 L9.20313 76 C9.20313 62.66667 9.20313 49.33334 9.20313 36 zM70.34766 39.8086 L67.10547 39.8086 L53.70704 71.60547 L56.94922 71.60547 C61.41537 61.00651 65.88151 50.40756 70.34766 39.8086 zM9.20313 0 L6 0 L6 40 L9.20313 40 C9.20313 26.66667 9.20313 13.33334 9.20313 0 zM36.58985 0 L14.59766 0 L14.59766 2.8125 L36.58985 2.8125 C36.58985 1.875 36.58985 0.9375 36.58985 0 zM54.58204 0 L32.58985 0 L32.58985 2.8125 L54.58204 2.8125 C54.58204 1.875 54.58204 0.9375 54.58204 0 zM56.07032 3.8086 L52.82813 3.8086 L66.22657 35.60547 L69.46875 35.60547 C65.00261 25.00651 60.53646 14.40756 56.07032 3.8086 z" />
<glyph unicode="E" horiz-adv-x="74" d="M34.58984 72 L12.59766 72 L12.59766 74.8125 L34.58984 74.8125 C34.58984 73.875 34.58984 72.9375 34.58984 72 zM52.58203 72 L30.58984 72 L30.58984 74.8125 L52.58203 74.8125 C52.58203 73.875 52.58203 72.9375 52.58203 72 zM70.57422 72 L48.58203 72 L48.58203 74.8125 L70.57422 74.8125 C70.57422 73.875 70.57422 72.9375 70.57422 72 zM7.20313 36 L4 36 L4 76 L7.20313 76 C7.20313 62.66667 7.20313 49.33334 7.20313 36 zM34.58984 36 L12.59766 36 L12.59766 38.8125 L34.58984 38.8125 C34.58984 37.875 34.58984 36.9375 34.58984 36 zM52.58203 36 L30.58984 36 L30.58984 38.8125 L52.58203 38.8125 C52.58203 37.875 52.58203 36.9375 52.58203 36 zM7.20313 0 L4 0 L4 40 L7.20313 40 C7.20313 26.66667 7.20313 13.33334 7.20313 0 zM34.58984 0 L12.59766 0 L12.59766 2.8125 L34.58984 2.8125 C34.58984 1.875 34.58984 0.9375 34.58984 0 zM52.58203 0 L30.58984 0 L30.58984 2.8125 L52.58203 2.8125 C52.58203 1.875 52.58203 0.9375 52.58203 0 zM70.57422 0 L48.58203 0 L48.58203 2.8125 L70.57422 2.8125 C70.57422 1.875 70.57422 0.9375 70.57422 0 z" />
<glyph unicode="F" horiz-adv-x="74" d="M34.58985 72 L12.59766 72 L12.59766 74.8125 L34.58985 74.8125 C34.58985 73.875 34.58985 72.9375 34.58985 72 zM52.58204 72 L30.58985 72 L30.58985 74.8125 L52.58204 74.8125 C52.58204 73.875 52.58204 72.9375 52.58204 72 zM70.57422 72 L48.58204 72 L48.58204 74.8125 L70.57422 74.8125 C70.57422 73.875 70.57422 72.9375 70.57422 72 zM7.20313 36 L4 36 L4 76 L7.20313 76 C7.20313 62.66666 7.20313 49.33333 7.20313 36 zM34.58985 36 L12.59766 36 L12.59766 38.8125 L34.58985 38.8125 C34.58985 37.875 34.58985 36.9375 34.58985 36 zM52.58204 36 L30.58985 36 L30.58985 38.8125 L52.58204 38.8125 C52.58204 37.875 52.58204 36.9375 52.58204 36 zM7.20313 0 L4 0 L4 40 L7.20313 40 C7.20313 26.66666 7.20313 13.33333 7.20313 0 z" />
<glyph unicode="G" horiz-adv-x="74" d="M37.74557 72.06681 L15.75338 72.06681 L15.75338 74.87931 L37.74557 74.87931 C37.74557 73.94181 37.74557 73.00431 37.74557 72.06681 zM55.73776 72.06681 L33.74557 72.06681 L33.74557 74.87931 L55.73776 74.87931 C55.73776 73.94181 55.73776 73.00431 55.73776 72.06681 zM3.24948 39.87541 L0.00729 39.87541 L13.40573 71.67228 L16.64791 71.67228 C12.18177 61.07332 7.71562 50.47437 3.24948 39.87541 zM55.73776 36.06681 L33.74557 36.06681 L33.74557 38.87931 L55.73776 38.87931 C55.73776 37.94181 55.73776 37.00431 55.73776 36.06681 zM64.78463 66.94572 L61.38619 66.94572 L55.13619 71.67228 L60.05807 71.67228 C61.63359 70.09676 63.20911 68.52124 64.78463 66.94572 zM17.52682 3.87541 L14.28463 3.87541 L0.88619 35.67228 L4.12838 35.67228 C8.59453 25.07332 13.06067 14.47437 17.52682 3.87541 zM37.74557 0.06681 L15.75338 0.06681 L15.75338 2.87931 L37.74557 2.87931 C37.74557 1.94181 37.74557 1.00431 37.74557 0.06681 zM55.73776 0.06681 L33.74557 0.06681 L33.74557 2.87931 L55.73776 2.87931 C55.73776 1.94181 55.73776 1.00431 55.73776 0.06681 zM57.92916 7.76213 L55.81979 9.91056 L66.46432 18.6801 L55.81979 27.50822 L57.92916 29.67619 L71.05416 18.71916 C66.67916 15.06681 62.30416 11.41447 57.92916 7.76213 z" />
<glyph unicode="H" horiz-adv-x="72" d="M11.20312 36 L8 36 L8 76 L11.20312 76 C11.20312 62.66667 11.20312 49.33333 11.20312 36 zM38.58984 36 L16.59766 36 L16.59766 38.8125 L38.58984 38.8125 C38.58984 37.875 38.58984 36.9375 38.58984 36 zM56.58203 36 L34.58984 36 L34.58984 38.8125 L56.58203 38.8125 C56.58203 37.875 56.58203 36.9375 56.58203 36 zM65.17969 36 L61.97656 36 L61.97656 76 L65.17969 76 C65.17969 62.66667 65.17969 49.33333 65.17969 36 zM11.20312 0 L8 0 L8 40 L11.20312 40 C11.20312 26.66667 11.20312 13.33333 11.20312 0 zM65.17969 0 L61.97656 0 L61.97656 40 L65.17969 40 C65.17969 26.66667 65.17969 13.33333 65.17969 0 z" />
<glyph unicode="I" horiz-adv-x="74" d="M39.20312 36 L36 36 L36 76 L39.20312 76 C39.20312 62.66666 39.20312 49.33333 39.20312 36 zM39.20312 0 L36 0 L36 40 L39.20312 40 C39.20312 26.66666 39.20312 13.33333 39.20312 0 z" />
<glyph unicode="J" horiz-adv-x="74" d="M65.64163 36 L62.43851 36 L62.43851 76 L65.64163 76 C65.64163 62.66667 65.64163 49.33333 65.64163 36 zM18.83304 3.80859 L15.59085 3.80859 L2.19242 35.60547 L5.4346 35.60547 C9.90075 25.00651 14.36689 14.40755 18.83304 3.80859 zM39.05179 0 L17.0596 0 L17.0596 2.8125 L39.05179 2.8125 C39.05179 1.875 39.05179 0.9375 39.05179 0 zM57.04398 0 L35.05179 0 L35.05179 2.8125 L57.04398 2.8125 C57.04398 1.875 57.04398 0.9375 57.04398 0 zM58.53226 3.80859 L55.29007 3.80859 L68.68851 35.60547 L71.9307 35.60547 C67.46455 25.00651 62.99841 14.40755 58.53226 3.80859 z" />
<glyph unicode="K" horiz-adv-x="74" d="M7.20312 36 L4 36 L4 76 L7.20312 76 C7.20312 62.66667 7.20312 49.33333 7.20312 36 zM34.58984 36 L12.59766 36 L12.59766 38.8125 L34.58984 38.8125 C34.58984 37.875 34.58984 36.9375 34.58984 36 zM52.58203 36 L30.58984 36 L30.58984 38.8125 L52.58203 38.8125 C52.58203 37.875 52.58203 36.9375 52.58203 36 zM54.07031 39.80859 L50.82812 39.80859 L64.22656 71.60547 L67.46875 71.60547 C63.0026 61.00651 58.53646 50.40755 54.07031 39.80859 zM7.20312 0 L4 0 L4 40 L7.20312 40 C7.20312 26.66667 7.20312 13.33333 7.20312 0 zM68.34766 3.80859 L65.10547 3.80859 L51.70703 35.60547 L54.94922 35.60547 C59.41536 25.00651 63.88151 14.40755 68.34766 3.80859 z" />
<glyph unicode="L" horiz-adv-x="74" d="M6.86359 36 L3.66046 36 L3.66046 76 L6.86359 76 C6.86359 62.66667 6.86359 49.33334 6.86359 36 zM6.86359 0 L3.66046 0 L3.66046 40 L6.86359 40 C6.86359 26.66667 6.86359 13.33334 6.86359 0 zM34.2503 0 L12.25812 0 L12.25812 2.8125 L34.2503 2.8125 C34.2503 1.875 34.2503 0.9375 34.2503 0 zM52.24249 0 L30.2503 0 L30.2503 2.8125 L52.24249 2.8125 C52.24249 1.875 52.24249 0.9375 52.24249 0 zM70.23468 0 L48.24249 0 L48.24249 2.8125 L70.23468 2.8125 C70.23468 1.875 70.23468 0.9375 70.23468 0 z" />
<glyph unicode="M" horiz-adv-x="74" d="M10.60013 36.08614 L7.397 36.08614 L7.397 76.08614 L10.60013 76.08614 C10.60013 62.75281 10.60013 49.41948 10.60013 36.08614 zM35.76028 39.89474 L32.5181 39.89474 L19.11966 71.69161 L22.36185 71.69161 C26.82799 61.09265 31.29414 50.49369 35.76028 39.89474 zM39.47513 39.89474 L36.23294 39.89474 L49.63138 71.69161 L52.87357 71.69161 C48.40742 61.09265 43.94127 50.49369 39.47513 39.89474 zM64.57669 36.08614 L61.37357 36.08614 L61.37357 76.08614 L64.57669 76.08614 C64.57669 62.75281 64.57669 49.41948 64.57669 36.08614 zM10.60013 0.08614 L7.397 0.08614 L7.397 40.08614 L10.60013 40.08614 C10.60013 26.75281 10.60013 13.41948 10.60013 0.08614 zM64.57669 0.08614 L61.37357 0.08614 L61.37357 40.08614 L64.57669 40.08614 C64.57669 26.75281 64.57669 13.41948 64.57669 0.08614 z" />
<glyph unicode="N" horiz-adv-x="74" d="M10.51399 36 L7.31086 36 L7.31086 76 L10.51399 76 C10.51399 62.66667 10.51399 49.33333 10.51399 36 zM35.67414 39.80859 L32.43196 39.80859 L19.03352 71.60547 L22.27571 71.60547 C26.74185 61.00651 31.208 50.40755 35.67414 39.80859 zM64.49055 36 L61.28742 36 L61.28742 76 L64.49055 76 C64.49055 62.66667 64.49055 49.33333 64.49055 36 zM10.51399 0 L7.31086 0 L7.31086 40 L10.51399 40 C10.51399 26.66667 10.51399 13.33333 10.51399 0 zM53.66633 3.80859 L50.42414 3.80859 L37.02571 35.60547 L40.26789 35.60547 C44.73404 25.00651 49.20018 14.40755 53.66633 3.80859 zM64.49055 0 L61.28742 0 L61.28742 40 L64.49055 40 C64.49055 26.66667 64.49055 13.33333 64.49055 0 z" />
<glyph unicode="O" horiz-adv-x="74" d="M15.99157 72.06715 L15.99157 74.88015 L37.98357 74.88015 L37.98357 72.06715 L15.99157 72.06715 zM33.98357 72.06715 L33.98357 74.88015 L55.97557 74.88015 L55.97557 72.06715 L33.98357 72.06715 zM0.24557 39.87615 L13.64357 71.67315 L16.88657 71.67315 L3.48757 39.87615 L0.24557 39.87615 zM68.49957 39.87615 L55.10057 71.67315 L58.34357 71.67315 L71.74157 39.87615 L68.49957 39.87615 zM14.52257 3.87615 L1.12457 35.67315 L4.36657 35.67315 L17.76557 3.87615 L14.52257 3.87615 zM15.99157 0.06715 L15.99157 2.88015 L37.98357 2.88015 L37.98357 0.06715 L15.99157 0.06715 zM33.98357 0.06715 L33.98357 2.88015 L55.97557 2.88015 L55.97557 0.06715 L33.98357 0.06715 zM54.22257 3.87615 L67.62057 35.67315 L70.86257 35.67315 L57.46457 3.87615 L54.22257 3.87615 z" />
<glyph unicode="P" horiz-adv-x="74" d="M59.63281 35.80469 C58.97526 36.47526 58.31771 37.14583 57.66016 37.81641 C60.19922 40.32943 62.09375 42.95313 63.34375 45.6875 C64.59375 48.42187 65.21875 51.28646 65.21875 54.28125 C65.21875 60.47917 62.69922 66.05208 57.66016 71 C58.34375 71.69661 59.02734 72.39323 59.71094 73.08984 C65.71354 67.52995 68.71484 61.34505 68.71484 54.53516 C68.71484 53.12891 68.57161 51.67057 68.28516 50.16016 C67.9987 48.64974 67.51042 47.10352 66.82031 45.52148 C66.13021 43.93945 65.20247 42.33464 64.03711 40.70703 C62.87174 39.07943 61.40365 37.44531 59.63281 35.80469 zM16.598 72 L16.598 74.812 L38.59 74.812 L38.59 72 L16.598 72 zM34.59 72 L34.59 74.812 L56.582 74.812 L56.582 72 L34.59 72 zM8 36 L8 76 L11.203 76 L11.203 36 L8 36 zM16.598 36 L16.598 38.812 L38.59 38.812 L38.59 36 L16.598 36 zM34.59 36 L34.59 38.812 L56.582 38.812 L56.582 36 L34.59 36 zM59.63281 35.80469 C58.97526 36.47526 58.31771 37.14583 57.66016 37.81641 C60.19922 40.32943 62.09375 42.95313 63.34375 45.6875 C64.59375 48.42187 65.21875 51.28646 65.21875 54.28125 C65.21875 60.47917 62.69922 66.05208 57.66016 71 C58.34375 71.69661 59.02734 72.39323 59.71094 73.08984 C65.71354 67.52995 68.71484 61.34505 68.71484 54.53516 C68.71484 53.12891 68.57161 51.67057 68.28516 50.16016 C67.9987 48.64974 67.51042 47.10352 66.82031 45.52148 C66.13021 43.93945 65.20247 42.33464 64.03711 40.70703 C62.87174 39.07943 61.40365 37.44531 59.63281 35.80469 zM8 0 L8 40 L11.203 40 L11.203 0 L8 0 z" />
<glyph unicode="Q" horiz-adv-x="74" d="M15.81972 72 L15.81972 74.813 L37.81172 74.813 L37.81172 72 L15.81972 72 zM33.81172 72 L33.81172 74.813 L55.80372 74.813 L55.80372 72 L33.81172 72 zM0.07372 39.809 L13.47172 71.606 L16.71472 71.606 L3.31572 39.809 L0.07372 39.809 zM68.32772 39.809 L54.92872 71.606 L58.17172 71.606 L71.56972 39.809 L68.32772 39.809 zM14.35072 3.809 L0.95272 35.606 L4.19472 35.606 L17.59372 3.809 L14.35072 3.809 zM15.81972 0 L15.81972 2.813 L37.81172 2.813 L37.81172 0 L15.81972 0 zM33.81172 0 L33.81172 2.813 L55.80372 2.813 L55.80372 0 L33.81172 0 zM52.15572 8.008 L60.65172 21.055 L52.83972 33.536 L56.96072 33.536 L62.80072 23.926 L68.67872 33.536 L72.68272 33.536 L64.85072 21.211 L73.32772 8.008 L68.93272 8.008 L62.72172 18.321 L56.49172 8.008 L52.15572 8.008 z" />
<glyph unicode="R" horiz-adv-x="74" d="M14.59225 72 L14.59225 74.812 L36.58425 74.812 L36.58425 72 L14.59225 72 zM32.58425 72 L32.58425 74.812 L54.57625 74.812 L54.57625 72 L32.58425 72 zM5.99425 36 L5.99425 76 L9.19725 76 L9.19725 36 L5.99425 36 zM14.59225 36 L14.59225 38.812 L36.58425 38.812 L36.58425 36 L14.59225 36 zM32.58425 36 L32.58425 38.812 L54.57625 38.812 L54.57625 36 L32.58425 36 zM57.62706 35.80469 C56.96951 36.47526 56.31196 37.14583 55.65441 37.81641 C58.19347 40.32943 60.088 42.95313 61.338 45.6875 C62.588 48.42187 63.213 51.28646 63.213 54.28125 C63.213 60.47917 60.69347 66.05208 55.65441 71 C56.338 71.69661 57.02159 72.39323 57.70519 73.08984 C63.70779 67.52995 66.70909 61.34505 66.70909 54.53516 C66.70909 53.12891 66.56587 51.67057 66.27941 50.16016 C65.99295 48.64974 65.50467 47.10352 64.81456 45.52148 C64.12446 43.93945 63.19672 42.33464 62.03136 40.70703 C60.866 39.07943 59.3979 37.44531 57.62706 35.80469 zM5.99425 0 L5.99425 40 L9.19725 40 L9.19725 0 L5.99425 0 zM67.09925 3.809 L53.70125 35.605 L56.94325 35.605 L70.34225 3.809 L67.09925 3.809 z" />
<glyph unicode="S" horiz-adv-x="74" d="M17.746 72 L17.746 74.813 L39.738 74.813 L39.738 72 L17.746 72 zM35.738 72 L35.738 74.813 L57.73 74.813 L57.73 72 L35.738 72 zM2 39.809 L15.398 71.606 L18.641 71.606 L5.242 39.809 L2 39.809 zM17.746 36 L17.746 38.813 L39.738 38.813 L39.738 36 L17.746 36 zM35.738 36 L35.738 38.813 L57.73 38.813 L57.73 36 L35.738 36 zM63.379 66.879 L57.129 71.606 L62.051 71.606 L66.777 66.879 L63.379 66.879 zM10.59375 7.65675 C10.13802 7.65675 9.71484 7.74139 9.32422 7.91066 C8.93359 8.07993 8.5918 8.31105 8.29883 8.60402 C8.00586 8.89698 7.77474 9.23878 7.60547 9.62941 C7.4362 10.02003 7.35156 10.4367 7.35156 10.87941 C7.35156 11.33514 7.4362 11.76157 7.60547 12.1587 C7.77474 12.55584 8.00586 12.90415 8.29883 13.20362 C8.5918 13.5031 8.93359 13.73748 9.32422 13.90675 C9.71484 14.07602 10.13802 14.16066 10.59375 14.16066 C11.03646 14.16066 11.45638 14.07602 11.85352 13.90675 C12.25065 13.73748 12.5957 13.5031 12.88867 13.20362 C13.18164 12.90415 13.41276 12.55584 13.58203 12.1587 C13.7513 11.76157 13.83594 11.33514 13.83594 10.87941 C13.83594 10.4367 13.7513 10.02003 13.58203 9.62941 C13.41276 9.23878 13.18164 8.89698 12.88867 8.60402 C12.5957 8.31105 12.25065 8.07993 11.85352 7.91066 C11.45638 7.74139 11.03646 7.65675 10.59375 7.65675 zM17.746 0 L17.746 2.813 L39.738 2.813 L39.738 0 L17.746 0 zM35.738 0 L35.738 2.813 L57.73 2.813 L57.73 0 L35.738 0 zM55.977 3.809 L69.375 35.606 L72.617 35.606 L59.219 3.809 L55.977 3.809 z" />
<glyph unicode="T" horiz-adv-x="74" d="M8.023 72 L8.023 74.812 L30.015 74.812 L30.015 72 L8.023 72 zM26.015 72 L26.015 74.812 L48.007 74.812 L48.007 72 L26.015 72 zM44.007 72 L44.007 74.812 L66 74.812 L66 72 L44.007 72 zM35.41 36 L35.41 76 L38.613 76 L38.613 36 L35.41 36 zM35.41 0 L35.41 40 L38.613 40 L38.613 0 L35.41 0 z" />
<glyph unicode="U" horiz-adv-x="74" d="M8.27 36 L8.27 76 L11.473 76 L11.473 36 L8.27 36 zM62.246 36 L62.246 76 L65.449 76 L65.449 36 L62.246 36 zM15.398 3.809 L2 35.605 L5.242 35.605 L18.641 3.809 L15.398 3.809 zM16.867 0 L16.867 2.812 L38.859 2.812 L38.859 0 L16.867 0 zM34.859 0 L34.859 2.812 L56.852 2.812 L56.852 0 L34.859 0 zM55.098 3.809 L68.496 35.605 L71.738 35.605 L58.34 3.809 L55.098 3.809 z" />
<glyph unicode="V" horiz-adv-x="74" d="M15.66 40 L2.262 71.797 L5.504 71.797 L18.903 40 L15.66 40 zM55.36 40 L68.758 71.797 L72 71.797 L58.602 40 L55.36 40 zM33.653 4 L20.254 35.797 L23.496 35.797 L36.895 4 L33.653 4 zM37.367 4 L50.766 35.797 L54.008 35.797 L40.61 4 L37.367 4 z" />
<glyph unicode="W" horiz-adv-x="74" d="M8.82 36 L8.82 76 L12.023 76 L12.023 36 L8.82 36 zM62.797 36 L62.797 76 L66 76 L66 36 L62.797 36 zM8.82 0 L8.82 40 L12.023 40 L12.023 0 L8.82 0 zM19.664 3.809 L33.062 35.605 L36.304 35.605 L22.906 3.809 L19.664 3.809 zM51.933 3.809 L38.535 35.605 L41.777 35.605 L55.175 3.809 L51.933 3.809 zM62.797 0 L62.797 40 L66 40 L66 0 L62.797 0 z" />
<glyph unicode="X" horiz-adv-x="74" d="M24.26925 40 L10.87125 71.797 L14.11325 71.797 L27.51225 40 L24.26925 40 zM25.73825 36.192 L25.73825 39.004 L47.73025 39.004 L47.73025 36.192 L25.73825 36.192 zM45.97625 40 L59.37525 71.797 L62.61725 71.797 L49.21925 40 L45.97625 40 zM9.99225 4 L23.39025 35.797 L26.63325 35.797 L13.23425 4 L9.99225 4 zM60.25425 4 L46.85525 35.797 L50.09725 35.797 L63.49625 4 L60.25425 4 z" />
<glyph unicode="Y" horiz-adv-x="74" d="M23.398 39.808 L10 71.605 L13.242 71.605 L26.641 39.808 L23.398 39.808 zM45.105 39.808 L58.504 71.605 L61.746 71.605 L48.348 39.808 L45.105 39.808 zM34.262 0 L34.262 40 L37.465 40 L37.465 0 L34.262 0 z" />
<glyph unicode="Z" horiz-adv-x="74" d="M10 72.191 L10 75.004 L31.992 75.004 L31.992 72.191 L10 72.191 zM27.992 72.191 L27.992 75.004 L49.984 75.004 L49.984 72.191 L27.992 72.191 zM45.984 72.191 L45.984 75.004 L67.977 75.004 L67.977 72.191 L45.984 72.191 zM48.23 40 L61.629 71.797 L64.871 71.797 L51.473 40 L48.23 40 zM30.238 4 L43.637 35.797 L46.879 35.797 L33.48 4 L30.238 4 zM10.023 0 L10.023 2.813 L32.015 2.813 L32.015 0 L10.023 0 zM28.015 0 L28.015 2.813 L50.007 2.813 L50.007 0 L28.015 0 zM46.007 0 L46.007 2.813 L68 2.813 L68 0 L46.007 0 z" />
<glyph unicode="a" horiz-adv-x="74" d="M23.23437 40 L19.99219 40 L33.39062 71.79687 L36.63281 71.79687 C32.16667 61.19792 27.70052 50.59896 23.23437 40 zM55.5039 40 L52.26172 40 L38.86328 71.79687 L42.10547 71.79687 C46.57161 61.19792 51.03776 50.59896 55.5039 40 zM5.24219 4 L2 4 L15.39844 35.79687 L18.64062 35.79687 C14.17448 25.19792 9.70833 14.59896 5.24219 4 zM32.9414 14.91797 C32.22526 14.91797 31.58073 15.03841 31.00781 15.2793 C30.43489 15.52018 29.9043 15.82292 29.41601 16.1875 C28.92773 16.55208 28.47851 16.94922 28.06836 17.3789 C27.6582 17.80859 27.25456 18.20573 26.85742 18.57031 C26.46029 18.93489 26.0664 19.23763 25.67578 19.47851 C25.28515 19.7194 24.86849 19.83984 24.42578 19.83984 C23.65755 19.83984 23.08789 19.53385 22.7168 18.92187 C22.3457 18.30989 22.16015 17.34635 22.16015 16.03125 C21.11849 16.03125 20.07682 16.03125 19.03515 16.03125 C19.00911 17.02083 19.11002 17.93555 19.33789 18.77539 C19.56575 19.61523 19.91081 20.3444 20.37305 20.96289 C20.83529 21.58138 21.41471 22.06315 22.11133 22.4082 C22.80794 22.75325 23.61849 22.92578 24.54297 22.92578 C25.25911 22.92578 25.90364 22.80534 26.47656 22.56445 C27.04948 22.32357 27.58008 22.02083 28.06836 21.65625 C28.55664 21.29167 29.00586 20.89453 29.41601 20.46484 C29.82617 20.03515 30.22982 19.63802 30.62695 19.27344 C31.02409 18.90885 31.41797 18.60612 31.80859 18.36523 C32.19922 18.12435 32.61588 18.0039 33.05859 18.0039 C33.8789 18.0039 34.46484 18.30338 34.8164 18.90234 C35.16797 19.5013 35.34375 20.46484 35.34375 21.79297 C36.38542 21.79297 37.42708 21.79297 38.46875 21.79297 C38.48177 20.80338 38.3776 19.88867 38.15625 19.04883 C37.93489 18.20898 37.58984 17.48307 37.12109 16.87109 C36.65234 16.25911 36.06966 15.7806 35.37305 15.43555 C34.67643 15.09049 33.86588 14.91797 32.9414 14.91797 zM50.93359 14.91797 C50.21745 14.91797 49.57292 15.03841 49 15.2793 C48.42708 15.52018 47.89648 15.82292 47.4082 16.1875 C46.91992 16.55208 46.4707 16.94922 46.06055 17.3789 C45.65039 17.80859 45.24674 18.20573 44.84961 18.57031 C44.45247 18.93489 44.05859 19.23763 43.66797 19.47851 C43.27734 19.7194 42.86068 19.83984 42.41797 19.83984 C41.64974 19.83984 41.08008 19.53385 40.70898 18.92187 C40.33789 18.30989 40.15234 17.34635 40.15234 16.03125 C39.11068 16.03125 38.06901 16.03125 37.02734 16.03125 C37.0013 17.02083 37.10221 17.93555 37.33008 18.77539 C37.55794 19.61523 37.90299 20.3444 38.36523 20.96289 C38.82747 21.58138 39.4069 22.06315 40.10351 22.4082 C40.80013 22.75325 41.61068 22.92578 42.53515 22.92578 C43.2513 22.92578 43.89583 22.80534 44.46875 22.56445 C45.04167 22.32357 45.57226 22.02083 46.06055 21.65625 C46.54883 21.29167 46.99805 20.89453 47.4082 20.46484 C47.81836 20.03515 48.222 19.63802 48.61914 19.27344 C49.01627 18.90885 49.41015 18.60612 49.80078 18.36523 C50.1914 18.12435 50.60807 18.0039 51.05078 18.0039 C51.87109 18.0039 52.45703 18.30338 52.80859 18.90234 C53.16015 19.5013 53.33594 20.46484 53.33594 21.79297 C54.3776 21.79297 55.41927 21.79297 56.46094 21.79297 C56.47396 20.80338 56.36979 19.88867 56.14844 19.04883 C55.92708 18.20898 55.58203 17.48307 55.11328 16.87109 C54.64453 16.25911 54.06185 15.7806 53.36523 15.43555 C52.66862 15.09049 51.85807 14.91797 50.93359 14.91797 zM73.49609 4 L70.2539 4 L56.85547 35.79687 L60.09765 35.79687 C64.5638 25.19792 69.02995 14.59896 73.49609 4 z" />
<glyph unicode="b" horiz-adv-x="74" d="M36.58984 72 L14.59766 72 L14.59766 74.8125 L36.58984 74.8125 C36.58984 73.875 36.58984 72.9375 36.58984 72 zM54.58203 72 L32.58984 72 L32.58984 74.8125 L54.58203 74.8125 C54.58203 73.875 54.58203 72.9375 54.58203 72 zM9.20312 36 L6 36 L6 76 L9.20312 76 C9.20312 62.66667 9.20312 49.33333 9.20312 36 zM36.58984 36 L14.59766 36 L14.59766 38.8125 L36.58984 38.8125 C36.58984 37.875 36.58984 36.9375 36.58984 36 zM54.58203 36 L32.58984 36 L32.58984 38.8125 L54.58203 38.8125 C54.58203 37.875 54.58203 36.9375 54.58203 36 zM57.63281 35.80469 C56.97526 36.47526 56.31771 37.14583 55.66016 37.81641 C58.19922 40.32943 60.09375 42.95313 61.34375 45.6875 C62.59375 48.42187 63.21875 51.28646 63.21875 54.28125 C63.21875 60.47917 60.69922 66.05208 55.66016 71 C56.34375 71.69661 57.02734 72.39323 57.71094 73.08984 C63.71354 67.52995 66.71484 61.34505 66.71484 54.53516 C66.71484 53.12891 66.57161 51.67057 66.28516 50.16016 C65.9987 48.64974 65.51042 47.10352 64.82031 45.52148 C64.13021 43.93945 63.20247 42.33464 62.03711 40.70703 C60.87174 39.07943 59.40365 37.44531 57.63281 35.80469 zM9.20312 0 L6 0 L6 40 L9.20312 40 C9.20312 26.66667 9.20312 13.33333 9.20312 0 zM36.58984 0 L14.59766 0 L14.59766 2.8125 L36.58984 2.8125 C36.58984 1.875 36.58984 0.9375 36.58984 0 zM54.58203 0 L32.58984 0 L32.58984 2.8125 L54.58203 2.8125 C54.58203 1.875 54.58203 0.9375 54.58203 0 zM57.63281 -0.19531 C56.97526 0.47526 56.31771 1.14583 55.66016 1.81641 C58.19922 4.32943 60.09375 6.95313 61.34375 9.6875 C62.59375 12.42187 63.21875 15.28646 63.21875 18.28125 C63.21875 24.47917 60.69922 30.05208 55.66016 35 C56.34375 35.69661 57.02734 36.39323 57.71094 37.08984 C63.71354 31.52995 66.71484 25.34505 66.71484 18.53516 C66.71484 17.12891 66.57161 15.67057 66.28516 14.16016 C65.9987 12.64974 65.51042 11.10352 64.82031 9.52148 C64.13021 7.93945 63.20247 6.33464 62.03711 4.70703 C60.87174 3.07943 59.40365 1.44531 57.63281 -0.19531 z" />
<glyph unicode="c" horiz-adv-x="74" d="M39.35038 71.94705 L17.35819 71.94705 L17.35819 74.75955 L39.35038 74.75955 C39.35038 73.82205 39.35038 72.88455 39.35038 71.94705 zM57.34257 71.94705 L35.35038 71.94705 L35.35038 74.75955 L57.34257 74.75955 C57.34257 73.82205 57.34257 72.88455 57.34257 71.94705 zM4.85429 39.75565 L1.6121 39.75565 L15.01054 71.55252 L18.25273 71.55252 C13.78658 60.95356 9.32043 50.3546 4.85429 39.75565 zM66.38944 66.82596 L62.99101 66.82596 L56.74101 71.55252 L61.66288 71.55252 C63.2384 69.977 64.81392 68.40148 66.38944 66.82596 zM19.13163 3.75565 L15.88944 3.75565 L2.49101 35.55252 L5.73319 35.55252 C10.19934 24.95356 14.66549 14.3546 19.13163 3.75565 zM39.35038 -0.05295 L17.35819 -0.05295 L17.35819 2.75955 L39.35038 2.75955 C39.35038 1.82205 39.35038 0.88455 39.35038 -0.05295 zM57.34257 -0.05295 L35.35038 -0.05295 L35.35038 2.75955 L57.34257 2.75955 C57.34257 1.82205 57.34257 0.88455 57.34257 -0.05295 zM57.99101 1.27518 C57.99101 2.1671 57.99101 3.05903 57.99101 3.95096 C58.65507 3.92492 59.2996 3.98351 59.9246 4.12674 C60.5496 4.26997 61.09973 4.48156 61.57499 4.76151 C62.05025 5.04145 62.43111 5.38976 62.71757 5.80643 C63.00403 6.22309 63.14726 6.69835 63.14726 7.23221 C63.14726 7.77908 63.05286 8.22179 62.86405 8.56033 C62.67525 8.89887 62.46366 9.21137 62.22929 9.49783 C61.99491 9.78429 61.78332 10.09028 61.59452 10.4158 C61.40572 10.74132 61.31132 11.17752 61.31132 11.7244 C61.31132 11.99783 61.3634 12.28429 61.46757 12.58377 C61.57174 12.88325 61.73124 13.15669 61.94608 13.40408 C62.16093 13.65148 62.43437 13.8533 62.7664 14.00955 C63.09843 14.1658 63.49231 14.24393 63.94804 14.24393 C64.40377 14.24393 64.84322 14.14953 65.2664 13.96072 C65.68957 13.77192 66.06067 13.48221 66.37968 13.09158 C66.69869 12.70096 66.95259 12.21268 67.1414 11.62674 C67.3302 11.0408 67.4246 10.3507 67.4246 9.55643 C67.4246 8.4757 67.22603 7.43729 66.8289 6.44119 C66.43176 5.4451 65.83931 4.56294 65.05155 3.79471 C64.26379 3.02648 63.28072 2.4145 62.10233 1.95877 C60.92395 1.50304 59.55351 1.27518 57.99101 1.27518 z" />
<glyph unicode="d" horiz-adv-x="74" d="M36.58985 72 L14.59766 72 L14.59766 74.8125 L36.58985 74.8125 C36.58985 73.875 36.58985 72.9375 36.58985 72 zM54.58204 72 L32.58985 72 L32.58985 74.8125 L54.58204 74.8125 C54.58204 73.875 54.58204 72.9375 54.58204 72 zM9.20313 36 L6 36 L6 76 L9.20313 76 C9.20313 62.66667 9.20313 49.33334 9.20313 36 zM70.34766 39.8086 L67.10547 39.8086 L53.70704 71.60547 L56.94922 71.60547 C61.41537 61.00651 65.88151 50.40756 70.34766 39.8086 zM9.20313 0 L6 0 L6 40 L9.20313 40 C9.20313 26.66667 9.20313 13.33334 9.20313 0 zM36.58985 0 L14.59766 0 L14.59766 2.8125 L36.58985 2.8125 C36.58985 1.875 36.58985 0.9375 36.58985 0 zM54.58204 0 L32.58985 0 L32.58985 2.8125 L54.58204 2.8125 C54.58204 1.875 54.58204 0.9375 54.58204 0 zM56.07032 3.8086 L52.82813 3.8086 L66.22657 35.60547 L69.46875 35.60547 C65.00261 25.00651 60.53646 14.40756 56.07032 3.8086 z" />
<glyph unicode="e" horiz-adv-x="74" d="M34.58984 72 L12.59766 72 L12.59766 74.8125 L34.58984 74.8125 C34.58984 73.875 34.58984 72.9375 34.58984 72 zM52.58203 72 L30.58984 72 L30.58984 74.8125 L52.58203 74.8125 C52.58203 73.875 52.58203 72.9375 52.58203 72 zM70.57422 72 L48.58203 72 L48.58203 74.8125 L70.57422 74.8125 C70.57422 73.875 70.57422 72.9375 70.57422 72 zM7.20313 36 L4 36 L4 76 L7.20313 76 C7.20313 62.66667 7.20313 49.33334 7.20313 36 zM34.58984 36 L12.59766 36 L12.59766 38.8125 L34.58984 38.8125 C34.58984 37.875 34.58984 36.9375 34.58984 36 zM52.58203 36 L30.58984 36 L30.58984 38.8125 L52.58203 38.8125 C52.58203 37.875 52.58203 36.9375 52.58203 36 zM7.20313 0 L4 0 L4 40 L7.20313 40 C7.20313 26.66667 7.20313 13.33334 7.20313 0 zM34.58984 0 L12.59766 0 L12.59766 2.8125 L34.58984 2.8125 C34.58984 1.875 34.58984 0.9375 34.58984 0 zM52.58203 0 L30.58984 0 L30.58984 2.8125 L52.58203 2.8125 C52.58203 1.875 52.58203 0.9375 52.58203 0 zM70.57422 0 L48.58203 0 L48.58203 2.8125 L70.57422 2.8125 C70.57422 1.875 70.57422 0.9375 70.57422 0 z" />
<glyph unicode="f" horiz-adv-x="74" d="M34.58985 72 L12.59766 72 L12.59766 74.8125 L34.58985 74.8125 C34.58985 73.875 34.58985 72.9375 34.58985 72 zM52.58204 72 L30.58985 72 L30.58985 74.8125 L52.58204 74.8125 C52.58204 73.875 52.58204 72.9375 52.58204 72 zM70.57422 72 L48.58204 72 L48.58204 74.8125 L70.57422 74.8125 C70.57422 73.875 70.57422 72.9375 70.57422 72 zM7.20313 36 L4 36 L4 76 L7.20313 76 C7.20313 62.66666 7.20313 49.33333 7.20313 36 zM34.58985 36 L12.59766 36 L12.59766 38.8125 L34.58985 38.8125 C34.58985 37.875 34.58985 36.9375 34.58985 36 zM52.58204 36 L30.58985 36 L30.58985 38.8125 L52.58204 38.8125 C52.58204 37.875 52.58204 36.9375 52.58204 36 zM7.20313 0 L4 0 L4 40 L7.20313 40 C7.20313 26.66666 7.20313 13.33333 7.20313 0 z" />
<glyph unicode="g" horiz-adv-x="74" d="M37.74557 72.06681 L15.75338 72.06681 L15.75338 74.87931 L37.74557 74.87931 C37.74557 73.94181 37.74557 73.00431 37.74557 72.06681 zM55.73776 72.06681 L33.74557 72.06681 L33.74557 74.87931 L55.73776 74.87931 C55.73776 73.94181 55.73776 73.00431 55.73776 72.06681 zM3.24948 39.87541 L0.00729 39.87541 L13.40573 71.67228 L16.64791 71.67228 C12.18177 61.07332 7.71562 50.47437 3.24948 39.87541 zM55.73776 36.06681 L33.74557 36.06681 L33.74557 38.87931 L55.73776 38.87931 C55.73776 37.94181 55.73776 37.00431 55.73776 36.06681 zM64.78463 66.94572 L61.38619 66.94572 L55.13619 71.67228 L60.05807 71.67228 C61.63359 70.09676 63.20911 68.52124 64.78463 66.94572 zM17.52682 3.87541 L14.28463 3.87541 L0.88619 35.67228 L4.12838 35.67228 C8.59453 25.07332 13.06067 14.47437 17.52682 3.87541 zM37.74557 0.06681 L15.75338 0.06681 L15.75338 2.87931 L37.74557 2.87931 C37.74557 1.94181 37.74557 1.00431 37.74557 0.06681 zM55.73776 0.06681 L33.74557 0.06681 L33.74557 2.87931 L55.73776 2.87931 C55.73776 1.94181 55.73776 1.00431 55.73776 0.06681 zM57.92916 7.76213 L55.81979 9.91056 L66.46432 18.6801 L55.81979 27.50822 L57.92916 29.67619 L71.05416 18.71916 C66.67916 15.06681 62.30416 11.41447 57.92916 7.76213 z" />
<glyph unicode="h" horiz-adv-x="72" d="M11.20312 36 L8 36 L8 76 L11.20312 76 C11.20312 62.66667 11.20312 49.33333 11.20312 36 zM38.58984 36 L16.59766 36 L16.59766 38.8125 L38.58984 38.8125 C38.58984 37.875 38.58984 36.9375 38.58984 36 zM56.58203 36 L34.58984 36 L34.58984 38.8125 L56.58203 38.8125 C56.58203 37.875 56.58203 36.9375 56.58203 36 zM65.17969 36 L61.97656 36 L61.97656 76 L65.17969 76 C65.17969 62.66667 65.17969 49.33333 65.17969 36 zM11.20312 0 L8 0 L8 40 L11.20312 40 C11.20312 26.66667 11.20312 13.33333 11.20312 0 zM65.17969 0 L61.97656 0 L61.97656 40 L65.17969 40 C65.17969 26.66667 65.17969 13.33333 65.17969 0 z" />
<glyph unicode="i" horiz-adv-x="72" d="M39.20312 36 L36 36 L36 76 L39.20312 76 C39.20312 62.66666 39.20312 49.33333 39.20312 36 zM39.20312 0 L36 0 L36 40 L39.20312 40 C39.20312 26.66666 39.20312 13.33333 39.20312 0 z" />
<glyph unicode="j" horiz-adv-x="74" d="M65.64163 36 L62.43851 36 L62.43851 76 L65.64163 76 C65.64163 62.66667 65.64163 49.33333 65.64163 36 zM18.83304 3.80859 L15.59085 3.80859 L2.19242 35.60547 L5.4346 35.60547 C9.90075 25.00651 14.36689 14.40755 18.83304 3.80859 zM39.05179 0 L17.0596 0 L17.0596 2.8125 L39.05179 2.8125 C39.05179 1.875 39.05179 0.9375 39.05179 0 zM57.04398 0 L35.05179 0 L35.05179 2.8125 L57.04398 2.8125 C57.04398 1.875 57.04398 0.9375 57.04398 0 zM58.53226 3.80859 L55.29007 3.80859 L68.68851 35.60547 L71.9307 35.60547 C67.46455 25.00651 62.99841 14.40755 58.53226 3.80859 z" />
<glyph unicode="k" horiz-adv-x="74" d="M7.20312 36 L4 36 L4 76 L7.20312 76 C7.20312 62.66667 7.20312 49.33333 7.20312 36 zM34.58984 36 L12.59766 36 L12.59766 38.8125 L34.58984 38.8125 C34.58984 37.875 34.58984 36.9375 34.58984 36 zM52.58203 36 L30.58984 36 L30.58984 38.8125 L52.58203 38.8125 C52.58203 37.875 52.58203 36.9375 52.58203 36 zM54.07031 39.80859 L50.82812 39.80859 L64.22656 71.60547 L67.46875 71.60547 C63.0026 61.00651 58.53646 50.40755 54.07031 39.80859 zM7.20312 0 L4 0 L4 40 L7.20312 40 C7.20312 26.66667 7.20312 13.33333 7.20312 0 zM68.34766 3.80859 L65.10547 3.80859 L51.70703 35.60547 L54.94922 35.60547 C59.41536 25.00651 63.88151 14.40755 68.34766 3.80859 z" />
<glyph unicode="l" horiz-adv-x="74" d="M6.86359 36 L3.66046 36 L3.66046 76 L6.86359 76 C6.86359 62.66667 6.86359 49.33334 6.86359 36 zM6.86359 0 L3.66046 0 L3.66046 40 L6.86359 40 C6.86359 26.66667 6.86359 13.33334 6.86359 0 zM34.2503 0 L12.25812 0 L12.25812 2.8125 L34.2503 2.8125 C34.2503 1.875 34.2503 0.9375 34.2503 0 zM52.24249 0 L30.2503 0 L30.2503 2.8125 L52.24249 2.8125 C52.24249 1.875 52.24249 0.9375 52.24249 0 zM70.23468 0 L48.24249 0 L48.24249 2.8125 L70.23468 2.8125 C70.23468 1.875 70.23468 0.9375 70.23468 0 z" />
<glyph unicode="m" horiz-adv-x="74" d="M10.60013 36.08614 L7.397 36.08614 L7.397 76.08614 L10.60013 76.08614 C10.60013 62.75281 10.60013 49.41948 10.60013 36.08614 zM35.76028 39.89474 L32.5181 39.89474 L19.11966 71.69161 L22.36185 71.69161 C26.82799 61.09265 31.29414 50.49369 35.76028 39.89474 zM39.47513 39.89474 L36.23294 39.89474 L49.63138 71.69161 L52.87357 71.69161 C48.40742 61.09265 43.94127 50.49369 39.47513 39.89474 zM64.57669 36.08614 L61.37357 36.08614 L61.37357 76.08614 L64.57669 76.08614 C64.57669 62.75281 64.57669 49.41948 64.57669 36.08614 zM10.60013 0.08614 L7.397 0.08614 L7.397 40.08614 L10.60013 40.08614 C10.60013 26.75281 10.60013 13.41948 10.60013 0.08614 zM64.57669 0.08614 L61.37357 0.08614 L61.37357 40.08614 L64.57669 40.08614 C64.57669 26.75281 64.57669 13.41948 64.57669 0.08614 z" />
<glyph unicode="n" horiz-adv-x="74" d="M10.51399 36 L7.31086 36 L7.31086 76 L10.51399 76 C10.51399 62.66667 10.51399 49.33333 10.51399 36 zM35.67414 39.80859 L32.43196 39.80859 L19.03352 71.60547 L22.27571 71.60547 C26.74185 61.00651 31.208 50.40755 35.67414 39.80859 zM64.49055 36 L61.28742 36 L61.28742 76 L64.49055 76 C64.49055 62.66667 64.49055 49.33333 64.49055 36 zM10.51399 0 L7.31086 0 L7.31086 40 L10.51399 40 C10.51399 26.66667 10.51399 13.33333 10.51399 0 zM53.66633 3.80859 L50.42414 3.80859 L37.02571 35.60547 L40.26789 35.60547 C44.73404 25.00651 49.20018 14.40755 53.66633 3.80859 zM64.49055 0 L61.28742 0 L61.28742 40 L64.49055 40 C64.49055 26.66667 64.49055 13.33333 64.49055 0 z" />
<glyph unicode="o" horiz-adv-x="74" d="M16.25 72 L16.25 74.813 L38.242 74.813 L38.242 72 L16.25 72 zM34.242 72 L34.242 74.813 L56.234 74.813 L56.234 72 L34.242 72 zM0.504 39.809 L13.902 71.606 L17.145 71.606 L3.746 39.809 L0.504 39.809 zM68.758 39.809 L55.359 71.606 L58.602 71.606 L72 39.809 L68.758 39.809 zM14.781 3.809 L1.383 35.606 L4.625 35.606 L18.024 3.809 L14.781 3.809 zM16.25 0 L16.25 2.813 L38.242 2.813 L38.242 0 L16.25 0 zM34.242 0 L34.242 2.813 L56.234 2.813 L56.234 0 L34.242 0 zM54.481 3.809 L67.879 35.606 L71.121 35.606 L57.723 3.809 L54.481 3.809 z" />
<glyph unicode="p" horiz-adv-x="74" d="M59.63281 35.80469 C58.97526 36.47526 58.31771 37.14583 57.66016 37.81641 C60.19922 40.32943 62.09375 42.95313 63.34375 45.6875 C64.59375 48.42187 65.21875 51.28646 65.21875 54.28125 C65.21875 60.47917 62.69922 66.05208 57.66016 71 C58.34375 71.69661 59.02734 72.39323 59.71094 73.08984 C65.71354 67.52995 68.71484 61.34505 68.71484 54.53516 C68.71484 53.12891 68.57161 51.67057 68.28516 50.16016 C67.9987 48.64974 67.51042 47.10352 66.82031 45.52148 C66.13021 43.93945 65.20247 42.33464 64.03711 40.70703 C62.87174 39.07943 61.40365 37.44531 59.63281 35.80469 zM16.598 72 L16.598 74.812 L38.59 74.812 L38.59 72 L16.598 72 zM34.59 72 L34.59 74.812 L56.582 74.812 L56.582 72 L34.59 72 zM8 36 L8 76 L11.203 76 L11.203 36 L8 36 zM16.598 36 L16.598 38.812 L38.59 38.812 L38.59 36 L16.598 36 zM34.59 36 L34.59 38.812 L56.582 38.812 L56.582 36 L34.59 36 zM59.63281 35.80469 C58.97526 36.47526 58.31771 37.14583 57.66016 37.81641 C60.19922 40.32943 62.09375 42.95313 63.34375 45.6875 C64.59375 48.42187 65.21875 51.28646 65.21875 54.28125 C65.21875 60.47917 62.69922 66.05208 57.66016 71 C58.34375 71.69661 59.02734 72.39323 59.71094 73.08984 C65.71354 67.52995 68.71484 61.34505 68.71484 54.53516 C68.71484 53.12891 68.57161 51.67057 68.28516 50.16016 C67.9987 48.64974 67.51042 47.10352 66.82031 45.52148 C66.13021 43.93945 65.20247 42.33464 64.03711 40.70703 C62.87174 39.07943 61.40365 37.44531 59.63281 35.80469 zM8 0 L8 40 L11.203 40 L11.203 0 L8 0 z" />
<glyph unicode="q" horiz-adv-x="74" d="M15.746 72 L15.746 74.813 L37.738 74.813 L37.738 72 L15.746 72 zM33.738 72 L33.738 74.813 L55.73 74.813 L55.73 72 L33.738 72 zM0 39.809 L13.398 71.606 L16.641 71.606 L3.242 39.809 L0 39.809 zM68.254 39.809 L54.855 71.606 L58.098 71.606 L71.496 39.809 L68.254 39.809 zM14.277 3.809 L0.879 35.606 L4.121 35.606 L17.52 3.809 L14.277 3.809 zM15.746 0 L15.746 2.813 L37.738 2.813 L37.738 0 L15.746 0 zM33.738 0 L33.738 2.813 L55.73 2.813 L55.73 0 L33.738 0 zM52.082 8.008 L60.578 21.055 L52.766 33.536 L56.887 33.536 L62.727 23.926 L68.605 33.536 L72.609 33.536 L64.777 21.211 L73.254 8.008 L68.859 8.008 L62.648 18.321 L56.418 8.008 L52.082 8.008 z" />
<glyph unicode="r" horiz-adv-x="74" d="M14.59225 72 L14.59225 74.812 L36.58425 74.812 L36.58425 72 L14.59225 72 zM32.58425 72 L32.58425 74.812 L54.57625 74.812 L54.57625 72 L32.58425 72 zM5.99425 36 L5.99425 76 L9.19725 76 L9.19725 36 L5.99425 36 zM14.59225 36 L14.59225 38.812 L36.58425 38.812 L36.58425 36 L14.59225 36 zM32.58425 36 L32.58425 38.812 L54.57625 38.812 L54.57625 36 L32.58425 36 zM57.62706 35.80469 C56.96951 36.47526 56.31196 37.14583 55.65441 37.81641 C58.19347 40.32943 60.088 42.95313 61.338 45.6875 C62.588 48.42187 63.213 51.28646 63.213 54.28125 C63.213 60.47917 60.69347 66.05208 55.65441 71 C56.338 71.69661 57.02159 72.39323 57.70519 73.08984 C63.70779 67.52995 66.70909 61.34505 66.70909 54.53516 C66.70909 53.12891 66.56587 51.67057 66.27941 50.16016 C65.99295 48.64974 65.50467 47.10352 64.81456 45.52148 C64.12446 43.93945 63.19672 42.33464 62.03136 40.70703 C60.866 39.07943 59.3979 37.44531 57.62706 35.80469 zM5.99425 0 L5.99425 40 L9.19725 40 L9.19725 0 L5.99425 0 zM67.09925 3.809 L53.70125 35.605 L56.94325 35.605 L70.34225 3.809 L67.09925 3.809 z" />
<glyph unicode="s" horiz-adv-x="74" d="M17.129 72 L17.129 74.813 L39.121 74.813 L39.121 72 L17.129 72 zM35.121 72 L35.121 74.813 L57.113 74.813 L57.113 72 L35.121 72 zM1.383 39.809 L14.781 71.606 L18.024 71.606 L4.625 39.809 L1.383 39.809 zM17.129 36 L17.129 38.813 L39.121 38.813 L39.121 36 L17.129 36 zM35.121 36 L35.121 38.813 L57.113 38.813 L57.113 36 L35.121 36 zM62.762 66.879 L56.512 71.606 L61.434 71.606 L66.16 66.879 L62.762 66.879 zM9.97675 7.65675 C9.52102 7.65675 9.09784 7.74139 8.70722 7.91066 C8.31659 8.07993 7.9748 8.31105 7.68183 8.60402 C7.38886 8.89698 7.15774 9.23878 6.98847 9.62941 C6.8192 10.02003 6.73456 10.4367 6.73456 10.87941 C6.73456 11.33514 6.8192 11.76157 6.98847 12.1587 C7.15774 12.55584 7.38886 12.90415 7.68183 13.20362 C7.9748 13.5031 8.31659 13.73748 8.70722 13.90675 C9.09784 14.07602 9.52102 14.16066 9.97675 14.16066 C10.41946 14.16066 10.83938 14.07602 11.23652 13.90675 C11.63365 13.73748 11.9787 13.5031 12.27167 13.20362 C12.56464 12.90415 12.79576 12.55584 12.96503 12.1587 C13.1343 11.76157 13.21894 11.33514 13.21894 10.87941 C13.21894 10.4367 13.1343 10.02003 12.96503 9.62941 C12.79576 9.23878 12.56464 8.89698 12.27167 8.60402 C11.9787 8.31105 11.63365 8.07993 11.23652 7.91066 C10.83938 7.74139 10.41946 7.65675 9.97675 7.65675 zM17.129 0 L17.129 2.813 L39.121 2.813 L39.121 0 L17.129 0 zM35.121 0 L35.121 2.813 L57.113 2.813 L57.113 0 L35.121 0 zM55.36 3.809 L68.758 35.606 L72 35.606 L58.602 3.809 L55.36 3.809 z" />
<glyph unicode="t" horiz-adv-x="74" d="M6.96629 72 L6.96629 74.812 L28.95829 74.812 L28.95829 72 L6.96629 72 zM24.95829 72 L24.95829 74.812 L46.95029 74.812 L46.95029 72 L24.95829 72 zM42.95029 72 L42.95029 74.812 L64.94329 74.812 L64.94329 72 L42.95029 72 zM34.35329 36 L34.35329 76 L37.55629 76 L37.55629 36 L34.35329 36 zM34.35329 0 L34.35329 40 L37.55629 40 L37.55629 0 L34.35329 0 z" />
<glyph unicode="u" horiz-adv-x="74" d="M7.34257 36 L7.34257 76 L10.54557 76 L10.54557 36 L7.34257 36 zM61.31857 36 L61.31857 76 L64.52157 76 L64.52157 36 L61.31857 36 zM14.47057 3.809 L1.07257 35.605 L4.31457 35.605 L17.71357 3.809 L14.47057 3.809 zM15.93957 0 L15.93957 2.812 L37.93157 2.812 L37.93157 0 L15.93957 0 zM33.93157 0 L33.93157 2.812 L55.92457 2.812 L55.92457 0 L33.93157 0 zM54.17057 3.809 L67.56857 35.605 L70.81057 35.605 L57.41257 3.809 L54.17057 3.809 z" />
<glyph unicode="v" horiz-adv-x="74" d="M14.81513 39.90712 L1.41713 71.70412 L4.65913 71.70412 L18.05813 39.90712 L14.81513 39.90712 zM54.51513 39.90712 L67.91313 71.70412 L71.15513 71.70412 L57.75713 39.90712 L54.51513 39.90712 zM32.80813 3.90712 L19.40913 35.70412 L22.65113 35.70412 L36.05013 3.90712 L32.80813 3.90712 zM36.52213 3.90712 L49.92113 35.70412 L53.16313 35.70412 L39.76513 3.90712 L36.52213 3.90712 z" />
<glyph unicode="w" horiz-adv-x="74" d="M6.82 36 L6.82 76 L10.023 76 L10.023 36 L6.82 36 zM60.797 36 L60.797 76 L64 76 L64 36 L60.797 36 zM6.82 0 L6.82 40 L10.023 40 L10.023 0 L6.82 0 zM17.664 3.809 L31.062 35.605 L34.304 35.605 L20.906 3.809 L17.664 3.809 zM49.933 3.809 L36.535 35.605 L39.777 35.605 L53.175 3.809 L49.933 3.809 zM60.797 0 L60.797 40 L64 40 L64 0 L60.797 0 z" />
<glyph unicode="x" horiz-adv-x="74" d="M24.277 40 L10.879 71.797 L14.121 71.797 L27.52 40 L24.277 40 zM25.746 36.192 L25.746 39.004 L47.738 39.004 L47.738 36.192 L25.746 36.192 zM45.984 40 L59.383 71.797 L62.625 71.797 L49.227 40 L45.984 40 zM10 4 L23.398 35.797 L26.641 35.797 L13.242 4 L10 4 zM60.262 4 L46.863 35.797 L50.105 35.797 L63.504 4 L60.262 4 z" />
<glyph unicode="y" horiz-adv-x="74" d="M23.652 39.808 L10.254 71.605 L13.496 71.605 L26.895 39.808 L23.652 39.808 zM45.359 39.808 L58.758 71.605 L62 71.605 L48.602 39.808 L45.359 39.808 zM34.516 0 L34.516 40 L37.719 40 L37.719 0 L34.516 0 z" />
<glyph unicode="z" horiz-adv-x="74" d="M10 72.191 L10 75.004 L31.992 75.004 L31.992 72.191 L10 72.191 zM27.992 72.191 L27.992 75.004 L49.984 75.004 L49.984 72.191 L27.992 72.191 zM45.984 72.191 L45.984 75.004 L67.977 75.004 L67.977 72.191 L45.984 72.191 zM48.23 40 L61.629 71.797 L64.871 71.797 L51.473 40 L48.23 40 zM30.238 4 L43.637 35.797 L46.879 35.797 L33.48 4 L30.238 4 zM10.023 0 L10.023 2.813 L32.015 2.813 L32.015 0 L10.023 0 zM28.015 0 L28.015 2.813 L50.007 2.813 L50.007 0 L28.015 0 zM46.007 0 L46.007 2.813 L68 2.813 L68 0 L46.007 0 z" />
</font>
</svg>
